<mxfile host="app.diagrams.net" modified="2020-12-20T18:22:48.542Z" agent="5.0 (Windows NT 10.0; Win64; x64) AppleWebKit/537.36 (KHTML, like Gecko) Chrome/87.0.4280.88 Safari/537.36" etag="s_si8B-gyQ5EfE0ZorX2" version="14.1.1" type="github">
  <diagram id="dYNXsPNB0cwV_SisQfnJ" name="Page-1">
    <mxGraphModel dx="1951" dy="380" grid="1" gridSize="10" guides="1" tooltips="1" connect="1" arrows="1" fold="1" page="1" pageScale="1" pageWidth="1169" pageHeight="827" math="0" shadow="0">
      <root>
        <mxCell id="0" />
        <mxCell id="1" parent="0" />
        <mxCell id="WlDap_q2hX0l5WMHpESc-32" style="edgeStyle=orthogonalEdgeStyle;curved=1;rounded=0;orthogonalLoop=1;jettySize=auto;html=1;exitX=1;exitY=0.5;exitDx=0;exitDy=0;entryX=0;entryY=0.5;entryDx=0;entryDy=0;dashed=1;startArrow=classic;startFill=1;" parent="1" source="WlDap_q2hX0l5WMHpESc-1" target="WlDap_q2hX0l5WMHpESc-22" edge="1">
          <mxGeometry relative="1" as="geometry" />
        </mxCell>
        <mxCell id="WlDap_q2hX0l5WMHpESc-1" value="&lt;b style=&quot;font-size: 14px;&quot;&gt;Application&lt;/b&gt;" style="rounded=0;whiteSpace=wrap;html=1;fillColor=#fff2cc;strokeColor=#d6b656;labelPosition=center;verticalLabelPosition=middle;align=center;verticalAlign=middle;spacingTop=0;spacingBottom=60;fontSize=14;" parent="1" vertex="1">
          <mxGeometry x="200" y="60" width="880" height="100" as="geometry" />
        </mxCell>
        <mxCell id="WlDap_q2hX0l5WMHpESc-2" value="&lt;b&gt;&lt;font style=&quot;font-size: 14px&quot;&gt;Management&lt;/font&gt;&lt;/b&gt;" style="rounded=0;whiteSpace=wrap;html=1;fillColor=#ffe6cc;strokeColor=#d79b00;spacingBottom=150;" parent="1" vertex="1">
          <mxGeometry x="200" y="170" width="120" height="210" as="geometry" />
        </mxCell>
        <mxCell id="WlDap_q2hX0l5WMHpESc-3" value="Services" style="rounded=0;whiteSpace=wrap;html=1;fillColor=#dae8fc;strokeColor=#6c8ebf;fontSize=14;fontStyle=1;spacingBottom=60;" parent="1" vertex="1">
          <mxGeometry x="330" y="170" width="620" height="100" as="geometry" />
        </mxCell>
        <mxCell id="WlDap_q2hX0l5WMHpESc-4" value="Communication" style="rounded=0;whiteSpace=wrap;html=1;fillColor=#d5e8d4;strokeColor=#82b366;fontSize=14;fontStyle=1;spacingBottom=60;" parent="1" vertex="1">
          <mxGeometry x="330" y="280" width="620" height="100" as="geometry" />
        </mxCell>
        <mxCell id="WlDap_q2hX0l5WMHpESc-5" value="Device" style="rounded=0;whiteSpace=wrap;html=1;fillColor=#f5f5f5;strokeColor=#666666;fontColor=#333333;fontSize=14;fontStyle=1;spacingBottom=60;" parent="1" vertex="1">
          <mxGeometry x="200" y="390" width="880" height="100" as="geometry" />
        </mxCell>
        <mxCell id="WlDap_q2hX0l5WMHpESc-6" value="&lt;b&gt;&lt;font style=&quot;font-size: 14px&quot;&gt;Security&lt;/font&gt;&lt;/b&gt;" style="rounded=0;whiteSpace=wrap;html=1;fillColor=#f8cecc;strokeColor=#b85450;spacingBottom=150;" parent="1" vertex="1">
          <mxGeometry x="960" y="170" width="120" height="210" as="geometry" />
        </mxCell>
        <mxCell id="WlDap_q2hX0l5WMHpESc-7" value="Web App" style="rounded=0;whiteSpace=wrap;html=1;strokeColor=none;" parent="1" vertex="1">
          <mxGeometry x="420" y="110" width="130" height="30" as="geometry" />
        </mxCell>
        <mxCell id="WlDap_q2hX0l5WMHpESc-8" value="Application Server" style="rounded=0;whiteSpace=wrap;html=1;strokeColor=none;" parent="1" vertex="1">
          <mxGeometry x="575" y="110" width="130" height="30" as="geometry" />
        </mxCell>
        <mxCell id="WlDap_q2hX0l5WMHpESc-9" value="Database Server" style="rounded=0;whiteSpace=wrap;html=1;strokeColor=none;" parent="1" vertex="1">
          <mxGeometry x="730" y="110" width="130" height="30" as="geometry" />
        </mxCell>
        <mxCell id="WlDap_q2hX0l5WMHpESc-10" value="Application&lt;br&gt;Management" style="rounded=0;whiteSpace=wrap;html=1;strokeColor=none;" parent="1" vertex="1">
          <mxGeometry x="205" y="220" width="110" height="40" as="geometry" />
        </mxCell>
        <mxCell id="WlDap_q2hX0l5WMHpESc-11" value="Database&lt;br&gt;Management" style="rounded=0;whiteSpace=wrap;html=1;strokeColor=none;" parent="1" vertex="1">
          <mxGeometry x="205" y="270" width="110" height="40" as="geometry" />
        </mxCell>
        <mxCell id="WlDap_q2hX0l5WMHpESc-12" value="Device&lt;br&gt;Management" style="rounded=0;whiteSpace=wrap;html=1;strokeColor=none;" parent="1" vertex="1">
          <mxGeometry x="205" y="320" width="110" height="35" as="geometry" />
        </mxCell>
        <mxCell id="WlDap_q2hX0l5WMHpESc-13" value="Authentication" style="rounded=0;whiteSpace=wrap;html=1;strokeColor=none;" parent="1" vertex="1">
          <mxGeometry x="965" y="220" width="110" height="40" as="geometry" />
        </mxCell>
        <mxCell id="WlDap_q2hX0l5WMHpESc-14" value="Authorization" style="rounded=0;whiteSpace=wrap;html=1;strokeColor=none;" parent="1" vertex="1">
          <mxGeometry x="965" y="270" width="110" height="40" as="geometry" />
        </mxCell>
        <mxCell id="WlDap_q2hX0l5WMHpESc-15" value="Native Services" style="rounded=0;whiteSpace=wrap;html=1;strokeColor=none;" parent="1" vertex="1">
          <mxGeometry x="420" y="220" width="130" height="30" as="geometry" />
        </mxCell>
        <mxCell id="WlDap_q2hX0l5WMHpESc-16" value="Web Services" style="rounded=0;whiteSpace=wrap;html=1;strokeColor=none;" parent="1" vertex="1">
          <mxGeometry x="730" y="220" width="130" height="30" as="geometry" />
        </mxCell>
        <mxCell id="WlDap_q2hX0l5WMHpESc-17" value="Communication APIs" style="rounded=0;whiteSpace=wrap;html=1;strokeColor=none;" parent="1" vertex="1">
          <mxGeometry x="410" y="322.5" width="150" height="30" as="geometry" />
        </mxCell>
        <mxCell id="WlDap_q2hX0l5WMHpESc-18" value="Communication Protocols" style="rounded=0;whiteSpace=wrap;html=1;strokeColor=none;" parent="1" vertex="1">
          <mxGeometry x="720" y="322.5" width="150" height="30" as="geometry" />
        </mxCell>
        <mxCell id="WlDap_q2hX0l5WMHpESc-19" value="Sensor" style="rounded=0;whiteSpace=wrap;html=1;strokeColor=none;" parent="1" vertex="1">
          <mxGeometry x="420" y="440" width="130" height="30" as="geometry" />
        </mxCell>
        <mxCell id="WlDap_q2hX0l5WMHpESc-20" value="Actuator" style="rounded=0;whiteSpace=wrap;html=1;strokeColor=none;" parent="1" vertex="1">
          <mxGeometry x="575" y="440" width="130" height="30" as="geometry" />
        </mxCell>
        <mxCell id="WlDap_q2hX0l5WMHpESc-21" value="Computing Devices" style="rounded=0;whiteSpace=wrap;html=1;strokeColor=none;" parent="1" vertex="1">
          <mxGeometry x="730" y="440" width="130" height="30" as="geometry" />
        </mxCell>
        <mxCell id="WlDap_q2hX0l5WMHpESc-22" value="&lt;b&gt;Web App:&lt;/b&gt;&amp;nbsp;Django Web App&lt;br&gt;&lt;b&gt;Application Server: &lt;/b&gt;Django App Server&lt;br&gt;&lt;b&gt;Database Server: &lt;/b&gt;MySQL" style="rounded=0;whiteSpace=wrap;html=1;fillColor=#fff2cc;strokeColor=#d6b656;" parent="1" vertex="1">
          <mxGeometry x="1120" y="60" width="360" height="100" as="geometry" />
        </mxCell>
        <mxCell id="WlDap_q2hX0l5WMHpESc-33" style="edgeStyle=orthogonalEdgeStyle;curved=1;rounded=0;orthogonalLoop=1;jettySize=auto;html=1;exitX=0;exitY=0.5;exitDx=0;exitDy=0;entryX=1;entryY=0.5;entryDx=0;entryDy=0;dashed=1;startArrow=classic;startFill=1;" parent="1" source="WlDap_q2hX0l5WMHpESc-23" target="WlDap_q2hX0l5WMHpESc-6" edge="1">
          <mxGeometry relative="1" as="geometry" />
        </mxCell>
        <mxCell id="WlDap_q2hX0l5WMHpESc-23" value="&lt;b&gt;Authentication: &lt;/b&gt;Web App, Database&lt;br&gt;&lt;b&gt;Authorization: &lt;/b&gt;Web App, Database" style="rounded=0;whiteSpace=wrap;html=1;fillColor=#f8cecc;strokeColor=#b85450;" parent="1" vertex="1">
          <mxGeometry x="1120" y="170" width="360" height="100" as="geometry" />
        </mxCell>
        <mxCell id="WlDap_q2hX0l5WMHpESc-24" value="&lt;b&gt;Communication APIs:&lt;/b&gt;&amp;nbsp;REST APIs&lt;br&gt;&lt;b&gt;Communication Protocols:&lt;/b&gt;&lt;br&gt;Link Layer: 802.11&lt;br&gt;Network Layer: IPv4/Ipv6&lt;br&gt;Transport: TCP&lt;br&gt;Application: HTTP" style="rounded=0;whiteSpace=wrap;html=1;fillColor=#d5e8d4;strokeColor=#82b366;" parent="1" vertex="1">
          <mxGeometry x="1120" y="280" width="360" height="100" as="geometry" />
        </mxCell>
        <mxCell id="WlDap_q2hX0l5WMHpESc-29" style="edgeStyle=orthogonalEdgeStyle;curved=1;rounded=0;orthogonalLoop=1;jettySize=auto;html=1;exitX=1;exitY=0.5;exitDx=0;exitDy=0;entryX=0;entryY=0.25;entryDx=0;entryDy=0;dashed=1;startArrow=classic;startFill=1;" parent="1" source="WlDap_q2hX0l5WMHpESc-25" target="WlDap_q2hX0l5WMHpESc-3" edge="1">
          <mxGeometry relative="1" as="geometry">
            <Array as="points">
              <mxPoint x="290" y="170" />
              <mxPoint x="290" y="195" />
            </Array>
          </mxGeometry>
        </mxCell>
        <mxCell id="WlDap_q2hX0l5WMHpESc-25" value="&lt;b&gt;Native service: &lt;/b&gt;Controller Service&lt;br&gt;&lt;b&gt;Web Services: &lt;/b&gt;State REST Service" style="rounded=0;whiteSpace=wrap;html=1;fillColor=#dae8fc;strokeColor=#6c8ebf;" parent="1" vertex="1">
          <mxGeometry x="-200" y="120" width="360" height="100" as="geometry" />
        </mxCell>
        <mxCell id="WlDap_q2hX0l5WMHpESc-30" style="edgeStyle=orthogonalEdgeStyle;curved=1;rounded=0;orthogonalLoop=1;jettySize=auto;html=1;exitX=1;exitY=0.5;exitDx=0;exitDy=0;entryX=0;entryY=0.644;entryDx=0;entryDy=0;entryPerimeter=0;dashed=1;startArrow=classic;startFill=1;" parent="1" source="WlDap_q2hX0l5WMHpESc-26" target="WlDap_q2hX0l5WMHpESc-2" edge="1">
          <mxGeometry relative="1" as="geometry" />
        </mxCell>
        <mxCell id="WlDap_q2hX0l5WMHpESc-26" value="&lt;b&gt;Application Management:&lt;/b&gt;&lt;br&gt;Django App Management&lt;br&gt;&lt;br&gt;&lt;b&gt;Database Management:&lt;br&gt;&lt;/b&gt;MySQL DB Management&lt;br&gt;&lt;br&gt;&lt;b&gt;Device Management:&lt;br&gt;&lt;/b&gt;Aurdino UNO device Management" style="rounded=0;whiteSpace=wrap;html=1;fillColor=#ffe6cc;strokeColor=#d79b00;" parent="1" vertex="1">
          <mxGeometry x="-200" y="230" width="360" height="150" as="geometry" />
        </mxCell>
        <mxCell id="WlDap_q2hX0l5WMHpESc-31" style="edgeStyle=orthogonalEdgeStyle;curved=1;rounded=0;orthogonalLoop=1;jettySize=auto;html=1;exitX=1;exitY=0.5;exitDx=0;exitDy=0;entryX=0;entryY=0.5;entryDx=0;entryDy=0;dashed=1;startArrow=classic;startFill=1;" parent="1" source="WlDap_q2hX0l5WMHpESc-27" target="WlDap_q2hX0l5WMHpESc-5" edge="1">
          <mxGeometry relative="1" as="geometry" />
        </mxCell>
        <mxCell id="WlDap_q2hX0l5WMHpESc-27" value="&lt;b&gt;Computing Device: &lt;/b&gt;Aurdino Compiler&lt;br&gt;&lt;b&gt;Sensor: &lt;/b&gt;DHT11, Flow, Float, HC-SR04&lt;br&gt;&lt;b&gt;Actuator: &lt;/b&gt;Switch" style="rounded=0;whiteSpace=wrap;html=1;fillColor=#f5f5f5;strokeColor=#666666;fontColor=#333333;" parent="1" vertex="1">
          <mxGeometry x="-200" y="390" width="360" height="100" as="geometry" />
        </mxCell>
        <mxCell id="WlDap_q2hX0l5WMHpESc-34" style="edgeStyle=orthogonalEdgeStyle;curved=1;rounded=0;orthogonalLoop=1;jettySize=auto;html=1;exitX=1;exitY=0.5;exitDx=0;exitDy=0;entryX=0;entryY=0.5;entryDx=0;entryDy=0;dashed=1;startArrow=classic;startFill=1;" parent="1" source="WlDap_q2hX0l5WMHpESc-4" target="WlDap_q2hX0l5WMHpESc-24" edge="1">
          <mxGeometry relative="1" as="geometry" />
        </mxCell>
      </root>
    </mxGraphModel>
  </diagram>
</mxfile>
